<?xml version="1.0" encoding="UTF-8"?>
<svg width="20px" height="20px" viewBox="0 0 20 20" version="1.1" xmlns="http://www.w3.org/2000/svg" xmlns:xlink="http://www.w3.org/1999/xlink">
    <title>icons/help-tooltip</title>
    <g id="icons/help-tooltip" stroke="none" stroke-width="1" fill="none" fill-rule="evenodd">
        <circle id="Oval" stroke="#8E939F" cx="10" cy="10" r="9.5"></circle>
        <path d="M10.6757325,12.9955083 C10.6757325,12.2982427 10.7545899,11.7711431 10.9123047,11.4142095 C11.0700196,11.0572759 11.414502,10.6214849 11.945752,10.1068364 C12.6762207,9.3985031 13.1618165,8.86171925 13.4025391,8.49648488 C13.6432618,8.1312505 13.7636231,7.65533904 13.7636231,7.0687505 C13.7636231,6.10032602 13.4357422,5.30483448 12.7799805,4.68227589 C12.1242188,4.0597173 11.2512533,3.748438 10.161084,3.748438 C8.98237309,3.748438 8.05545252,4.11228891 7.38032231,4.83999073 C6.7051921,5.56769256 6.367627,6.52919972 6.367627,7.72451222 L6.367627,7.72451222 L7.84516606,7.72451222 C7.87283533,7.00511118 7.98627934,6.45449269 8.18549809,6.07265675 C8.53966476,5.38645883 9.17882492,5.04335988 10.1029786,5.04335988 C10.8500489,5.04335988 11.3854493,5.24257863 11.7091797,5.64101613 C12.0329102,6.03945363 12.1947754,6.50983123 12.1947754,7.05214894 C12.1947754,7.43951873 12.0840984,7.81305389 11.8627442,8.17275441 C11.7409994,8.37750701 11.5805176,8.57395883 11.3812989,8.76210988 L11.3812989,8.76210988 L10.7172364,9.41787159 C10.0808431,10.0431971 9.66857101,10.597966 9.48041997,11.0821782 C9.29226893,11.5663905 9.19819341,12.2041672 9.19819341,12.9955083 L9.19819341,12.9955083 L10.6757325,12.9955083 Z M10.8168457,16.1000005 L10.8168457,14.373438 L9.16499028,14.373438 L9.16499028,16.1000005 L10.8168457,16.1000005 Z" id="?" fill="#8E939F" fill-rule="nonzero"></path>
    </g>
</svg>