<?xml version="1.0" encoding="UTF-8"?>
<svg width="19px" height="12px" viewBox="0 0 19 12" version="1.1" xmlns="http://www.w3.org/2000/svg" xmlns:xlink="http://www.w3.org/1999/xlink">
    <title>icons/title-name</title>
    <g id="Desktop-Project-Editor" stroke="none" stroke-width="1" fill="none" fill-rule="evenodd">
        <g id="Maker-Mode/contents_sidebar" transform="translate(-6.000000, -26.000000)" fill="#ACB2C0" fill-rule="nonzero">
            <g id="icons/title-name" transform="translate(6.252000, 26.690000)">
                <path d="M3.63958641,10.8050222 L3.63958641,10.2363368 C2.4534712,10.0901034 2.42097489,9.86262925 2.64844904,9.08271787 C2.84342688,8.43279173 3.05465288,7.8478582 3.23338257,7.34416544 L6.35302806,7.34416544 C6.59675037,8.01033973 6.84047267,8.69276219 7.00295421,9.18020679 C7.26292467,9.89512555 7.1816839,10.0901034 6.22304284,10.2363368 L6.22304284,10.8050222 L10.8700148,10.8050222 L10.8700148,10.2363368 C9.84638109,10.1063516 9.6351551,9.89512555 9.08271787,8.46528804 C8.02658789,5.67060561 7.01920236,2.84342688 5.97932053,3.71089528e-14 L5.1506647,0.211225997 L1.81979321,8.56277696 C1.28360414,9.92762186 1.08862629,10.1063516 0.0162481536,10.2363368 L-1.01018816e-13,10.8050222 L3.63958641,10.8050222 Z M6.04431315,6.48301329 L3.50960118,6.48301329 C3.93205318,5.32939439 4.33825702,4.15952733 4.79320532,2.97341211 L4.84194978,2.97341211 L6.04431315,6.48301329 Z M16.9630724,11 L18.7341211,10.0738552 L18.5716396,9.55391433 C18.3929099,9.61890694 18.2141802,9.68389956 18.0192024,9.68389956 C17.7592319,9.68389956 17.4992614,9.47267356 17.4992614,8.72525849 L17.4992614,6.04431315 C17.4992614,5.13441654 17.3530281,4.43574594 16.6543575,3.89955687 C16.2156573,3.5745938 15.7282127,3.42836041 15.0620384,3.42836041 C14.1358936,3.59084195 12.9822747,4.15952733 12.3648449,4.58197932 C11.9911374,4.85819793 11.7961595,5.06942393 11.7961595,5.36189069 C11.7961595,5.78434269 12.3810931,6.17429838 12.8035451,6.17429838 C13.1447563,6.17429838 13.3722304,6.04431315 13.4859675,5.62186115 C13.6159527,5.11816839 13.7621861,4.7282127 13.957164,4.50073855 C14.1033973,4.30576071 14.282127,4.20827179 14.493353,4.20827179 C15.0945347,4.20827179 15.4844904,4.77695716 15.4844904,5.80059084 L15.4844904,6.28803545 C15.1107829,6.61299852 13.859675,7.00295421 12.901034,7.36041359 C12.05613,7.66912851 11.6661743,8.07533235 11.6661743,8.92023634 C11.6661743,9.92762186 12.478582,11 13.859675,11 C14.16839,11 14.9320532,10.4638109 15.549483,10.0576071 C15.6307238,10.2525849 15.7444609,10.4638109 15.971935,10.6587888 C16.183161,10.8537666 16.5243722,11 16.9630724,11 Z M14.8020679,9.78138848 C14.4283604,9.78138848 13.8271787,9.44017725 13.8271787,8.53028065 C13.8271787,7.97784343 14.0871492,7.68537666 14.5908419,7.4254062 C14.915805,7.24667651 15.1920236,7.06794682 15.4844904,6.92171344 L15.4844904,9.52141802 C15.2082718,9.71639586 15.0295421,9.78138848 14.8020679,9.78138848 Z" id="Aa"></path>
            </g>
        </g>
    </g>
</svg>