<?xml version="1.0" encoding="UTF-8"?>
<svg width="35px" height="35px" viewBox="0 0 88 38" version="1.1" xmlns="http://www.w3.org/2000/svg" xmlns:xlink="http://www.w3.org/1999/xlink">
    <title>icons/welcome/key-auth</title>
    <g id="icons/welcome/key-auth" stroke="none" stroke-width="1" fill="none" fill-rule="evenodd">
        <path d="M68.75,7.10542736e-15 C61.45,7.10542736e-15 54.75,4.3 51.75,10.9 L7.85,10.9 C7.45,10.9 7.05,11.1 6.75,11.4 L0.45,17.6 C-0.15,18.2 -0.15,19.2 0.45,19.8 C0.45,19.8 0.45,19.8 0.45,19.8 L6.75,26 C7.05,26.3 7.45,26.5 7.85,26.5 L14.05,26.5 C14.45,26.5 14.85,26.3 15.15,26 L18.75,22.4 L22.35,26 C22.95,26.6 23.95,26.6 24.55,26 C24.55,26 24.55,26 24.55,26 L28.15,22.4 L31.75,26 C32.35,26.6 33.35,26.6 33.95,26 C33.95,26 33.95,26 33.95,26 L37.55,22.4 L41.15,26 C41.45,26.3 41.85,26.5 42.25,26.5 L51.75,26.5 C56.05,35.9 67.15,40 76.65,35.7 C86.05,31.4 90.15,20.3 85.85,10.8 C82.75,4.3 76.05,7.10542736e-15 68.75,7.10542736e-15 Z M68.75,34.4 C62.35,34.4 56.55,30.5 54.25,24.5 C54.05,23.9 53.45,23.5 52.75,23.5 L42.85,23.5 L38.65,19.3 C38.05,18.7 37.05,18.7 36.45,19.3 C36.45,19.3 36.45,19.3 36.45,19.3 L32.85,22.8 L29.25,19.2 C28.65,18.6 27.65,18.6 27.05,19.2 C27.05,19.2 27.05,19.2 27.05,19.2 L23.45,22.8 L19.85,19.2 C19.25,18.6 18.25,18.6 17.65,19.2 C17.65,19.2 17.65,19.2 17.65,19.2 L13.45,23.4 L8.45,23.4 L3.75,18.8 L8.45,14.1 L52.75,14.1 C53.35,14.1 53.95,13.7 54.25,13.1 C57.35,5.1 66.45,1.1 74.45,4.2 C82.45,7.3 86.45,16.4 83.35,24.4 C80.95,30.5 75.15,34.4 68.75,34.4 Z M74.95,12.6 C71.45,12.6 68.75,15.4 68.75,18.8 C68.75,22.3 71.55,25 74.95,25 C78.35,25 81.15,22.2 81.15,18.8 C81.25,15.3 78.45,12.6 74.95,12.6 Z M74.95,21.9 C73.25,21.9 71.85,20.5 71.85,18.8 C71.85,17.1 73.25,15.7 74.95,15.7 C76.65,15.7 78.05,17.1 78.05,18.8 C78.15,20.5 76.75,21.9 74.95,21.9 Z" id="Shape" fill="#FFFFFF" fill-rule="nonzero"></path>
    </g>
</svg>