<svg xmlns="http://www.w3.org/2000/svg" xmlns:xlink="http://www.w3.org/1999/xlink" width="20" height="20" viewBox="0 0 20 20">
    <defs>
        <path id="am3gdjce0a" d="M.169 10.063c0 5.523 4.478 10 10 10s10-4.477 10-10-4.478-10-10-10-10 4.477-10 10zm7.887-8.864c.682-.16 1.386-.226 2.113-.226.727 0 1.432.09 2.113.25l-.749 2.59c-.433-.091-.887-.158-1.364-.158-.477 0-.909.045-1.364.158l-.749-2.614zm4.34 2.864l.751-2.613c2.613.909 4.703 2.977 5.613 5.613l-2.613.75c-.637-1.727-2.023-3.114-3.751-3.75zm-10.817 3c.909-2.614 2.977-4.704 5.613-5.613l.75 2.613c-1.728.636-3.114 2.023-3.75 3.75l-2.613-.75zm3.114 3c0-3.045 2.453-5.477 5.476-5.477s5.477 2.454 5.477 5.477-2.454 5.478-5.477 5.478-5.476-2.455-5.476-5.478zm11.704 1.342c.091-.433.159-.887.159-1.365 0-.477-.046-.931-.159-1.363l2.613-.75c.159.682.25 1.386.25 2.113 0 .728-.091 1.433-.25 2.114l-2.613-.75zM1.078 10.04c0-.727.091-1.431.25-2.113l2.614.75c-.091.432-.159.886-.159 1.363 0 .478.046.932.159 1.365l-2.614.749c-.159-.681-.25-1.386-.25-2.114zm11.318 6c1.728-.658 3.114-2.023 3.751-3.75l2.613.75c-.91 2.614-2.978 4.705-5.613 5.614l-.751-2.613zm-10.817-3l2.613-.75c.636 1.727 2.022 3.114 3.75 3.75l-.75 2.614c-2.614-.91-4.704-2.977-5.613-5.613zm9.954 3.25l.749 2.614c-.681.159-1.386.25-2.113.25-.727 0-1.431-.091-2.113-.25l.749-2.613c.433.09.887.159 1.364.159.477 0 .931-.046 1.364-.16z"/>
    </defs>
    <g fill="none" fill-rule="evenodd">
        <g fill="#8E939F">
            <g>
                <g transform="translate(-763 -85) translate(-2 -1) translate(765 86)">
                    <mask id="cufp352p4b" fill="#fff">
                        <use xlink:href="#am3gdjce0a"/>
                    </mask>
                    <path d="M-1 21.273L21.273 21.273 21.273 -1 -1 -1z" mask="url(#cufp352p4b)"/>
                </g>
            </g>
        </g>
    </g>
</svg>
