<?xml version="1.0" encoding="UTF-8"?>
<svg width="106px" height="16px" viewBox="0 0 106 16" version="1.1" xmlns="http://www.w3.org/2000/svg" xmlns:xlink="http://www.w3.org/1999/xlink">
    <!-- Generator: Sketch 41.2 (35397) - http://www.bohemiancoding.com/sketch -->
    <title>caplin_logo_white</title>
    <desc>Created with Sketch.</desc>
    <defs></defs>
    <g id="Navigation" stroke="none" stroke-width="1" fill="none" fill-rule="evenodd">
        <g id="Navigation-light-Copy" transform="translate(-667.000000, -1278.000000)" fill="#FFFFFF">
            <g id="caplin_logo_white" transform="translate(667.000000, 1278.000000)">
                <path d="M77.8807247,16 L78.6265727,16 C81.1615501,16 81.1615501,13.9838953 81.1615501,13.9838953 L81.1615501,0 L77.8807247,0 L77.8807247,16 Z M62.3512833,16 L71.751384,16 C73.834927,16 74.2863613,13.9838953 74.2863613,13.9838953 L65.673377,13.9838953 L65.673377,0 L63.1383996,0 L62.3512833,0 L62.3512833,16 Z M47.1826875,8.313538 L47.1826875,2.01610468 L50.0075491,2.01610468 C52.5762456,2.01610468 55.8535481,2.61449421 55.8535481,5.13185707 C55.8535481,7.47961751 53.1363865,8.313538 51.2013085,8.313538 L50.8540513,8.313538 C48.7851032,8.313538 48.2742828,10.3316558 48.2742828,10.3316558 L50.4398591,10.3316558 C54.6275793,10.3316558 59.0145949,9.04177151 59.0145949,5.15450428 C59.0145949,1.26572723 54.6950176,0 49.9421238,0 L43.8575742,0 L43.8575742,16 L44.6482134,16 C47.2440866,16 47.1922496,13.9979869 47.1922496,13.9979869 L47.1826875,10.3316558 L47.1826875,8.313538 Z M29.3165576,3.08152994 C29.7518873,3.83090086 32.7861097,9.04177151 32.7861097,9.04177151 L29.1182687,9.04177151 C26.691998,9.04177151 26.1605435,11.0598893 26.1605435,11.0598893 L33.8454957,11.0598893 L36.8158027,16 L40.4393558,16 C40.4393558,16 30.9557121,0.521389029 30.6356316,0 L28.2269753,0 C26.3049824,3.13638651 18.3225969,16 18.3225969,16 L21.8127831,16 C22.5234021,14.786613 24.7045798,11.0598893 24.7045798,11.0598893 L25.8439859,9.04177151 L29.3165576,3.08152994 Z M17.4710619,0 L12.265224,0 C5.18520382,0 -8.8817842e-15,3.00201309 -8.8817842e-15,7.93105184 C-8.8817842e-15,13.0201309 4.7916457,16 12.8379467,16 L13.5052843,16 C15.7488676,16 16.3794665,13.6155008 16.3794665,13.6155008 C16.3794665,13.6155008 15.8656266,13.9838953 12.265224,13.9838953 C7.44640161,13.9838953 3.52239557,11.7609461 3.52239557,8 C3.52239557,4.39909411 7.07800705,2.01610468 12.4313035,2.01610468 C14.1263211,2.01610468 14.3633619,2.03371917 14.9617514,2.04630096 C16.9607448,2.08958228 17.4710619,0 17.4710619,0 L17.4710619,0 Z M87.6492199,0 L88.4368395,0 L90.7156517,0 C91.8439859,1.19979869 102.40916,11.970307 102.40916,11.970307 L102.475088,11.970307 L102.475088,0 L105.798691,0 L105.798691,16 L102.635128,16 C100.865123,14.2284852 91.0387519,3.75088072 91.0387519,3.75088072 L90.9718168,3.75088072 L90.9718168,13.9838953 C90.9718168,13.9838953 91.0226472,16 88.3965778,16 L87.6492199,16 L87.6492199,0 Z"></path>
            </g>
        </g>
    </g>
</svg>